<?xml version="1.0" encoding="UTF-8"?>
<svg width="100" height="100" version="1.1" viewBox="0 0 100 100" xml:space="preserve" xmlns="http://www.w3.org/2000/svg"><g transform="matrix(1.4246 0 0 1.4246 -21.232 -21.232)"><path d="m75.72 58.72c-4.12 1.28-8.74 1.1-12.86-0.08-1.23-0.35-2.41-0.79-3.51-1.3-5.34-2.48-7.56-6.07-7.68-9.32-0.06-1.54 0.36-3 1.13-4.24 0.76-1.22 1.88-2.2 3.24-2.79 2.74-1.18 6.51-0.72 10.52 2.66 1.5 1.27 2.95 2.71 4.3 4.06 0.56 0.55 1.1 1.09 1.81 1.78 0.03 0.03 0.05 0.06 0.08 0.09 2.36 2.26 4.79 4.03 7.58 4.28 1.02 0.09 2.06-0.02 3.12-0.39-2.07 2.64-4.77 4.33-7.73 5.25z" fill="#3ebeb0"/><path d="m40.65 57.34c-1.1 0.51-2.28 0.95-3.51 1.3-4.12 1.18-8.74 1.36-12.86 0.08-2.95-0.92-5.66-2.61-7.72-5.25 1.06 0.36 2.09 0.47 3.11 0.38 2.79-0.25 5.22-2.02 7.58-4.28 0.76-0.73 1.32-1.29 1.9-1.86 1.35-1.35 2.8-2.79 4.3-4.06 4.01-3.39 7.78-3.84 10.52-2.66 1.36 0.58 2.48 1.57 3.24 2.79 0.77 1.23 1.18 2.7 1.13 4.24-0.13 3.25-2.36 6.84-7.69 9.32z" fill="#f0bf1a"/></g></svg>
